<?xml version="1.0" encoding="UTF-8"?>
<svg id="Layer_2" data-name="Layer 2" xmlns="http://www.w3.org/2000/svg" xmlns:xlink="http://www.w3.org/1999/xlink" viewBox="0 0 1299.96 223.91">
  <defs>
    <style>
      .cls-1 {
        fill: url(#linear-gradient);
      }
    </style>
    <linearGradient id="linear-gradient" x1="-563.32" y1="4664.75" x2="-374.95" y2="4888.76" gradientTransform="translate(539.01 4868.31) scale(1 -1)" gradientUnits="userSpaceOnUse">
      <stop offset="0" stop-color="#55fdba"/>
      <stop offset="1" stop-color="#49fb3f"/>
    </linearGradient>
  </defs>
  <g id="Suite">
    <g id="Logotype">
      <path d="M325.23,69.49l-70.85,154.41h-20.87l23.39-50.76-46.06-103.66h21.33l35.21,82.14,37.22-82.14h20.64ZM475.72,92.3c-4.14-7.64-10.06-13.75-17.7-18.46-7.74-4.72-16.85-6.99-27.53-6.99s-20.13,2.27-28.27,6.99c-8.15,4.72-14.49,11.29-19.09,19.62-4.43,8.47-6.75,18.38-6.75,29.61s2.32,21.09,6.89,29.43c4.67,8.38,11,14.82,19.09,19.53,8.15,4.72,17.46,6.99,27.95,6.99,8.49,0,15.97-1.44,22.69-4.5,6.67-3,12.15-7.18,16.53-12.54,4.33-5.33,7.5-11.29,9.4-17.72h-19.47c-2.32,5.74-6.01,10.37-10.9,13.56-4.99,3.33-11.13,4.99-18.45,4.99-6.01,0-11.64-1.44-16.82-4.26-5.26-2.92-9.5-7.18-12.71-12.91-2.83-5.09-4.43-11.29-4.62-18.36h85.89c.08-1.9.19-3.65.19-5.33v-4.63c0-9.06-2.09-17.45-6.25-25.03h-.08v.02ZM395.98,113.04c.56-5.46,2-10.08,4.43-14.07,3.07-5.18,7.31-9.16,12.63-11.9,5.18-2.63,10.9-3.97,17.06-3.97,9.03,0,16.63,2.63,22.69,7.91,6.01,5.33,9.32,12.73,9.77,22.03h-66.58ZM590.6,179.02c-10.81,0-20.21-2.41-28.27-7.37-8.06-4.9-14.31-11.57-18.82-20.08-4.51-8.52-6.81-18.14-6.81-28.92s2.29-20.4,6.81-28.78c4.51-8.38,10.86-14.98,18.91-19.86,8.09-4.82,17.46-7.21,28.14-7.21,8.94,0,16.77,1.76,23.52,5.28,6.81,3.56,12.02,8.47,15.7,14.76V4.72l19.7-3.19v174.97h-19.7v-17.5c-3.5,5.18-8.43,9.81-14.82,13.88-6.38,4.07-14.49,6.16-24.4,6.16h.05v-.02ZM593.19,162.22c7.13,0,13.41-1.66,18.82-4.96,5.4-3.29,9.59-7.91,12.71-13.8,3.07-5.87,4.57-12.73,4.57-20.5s-1.54-14.58-4.57-20.5c-3.07-5.87-7.31-10.5-12.71-13.8-5.4-3.29-11.69-4.96-18.82-4.96s-13.32,1.66-18.82,4.96c-5.58,3.29-9.88,7.87-12.9,13.7-3.07,5.84-4.57,12.68-4.57,20.59s1.54,14.58,4.57,20.5c3.07,5.87,7.37,10.5,12.9,13.8,5.55,3.29,11.83,4.96,18.82,4.96v.02ZM718.59,179.02c-13.27,0-24.35-3.05-33.26-9.16-8.94-6.11-14.12-15.04-15.51-26.88h20.35c1.17,6.16,4.28,11.06,9.4,14.66,5.13,3.61,11.69,5.41,19.7,5.41,7.59,0,13.41-1.61,17.51-4.77,4.11-3.14,6.11-7.18,6.11-12.08,0-3.61-1.31-6.38-3.87-8.28-2.56-1.95-7.26-3.51-14.12-4.63-2.75-.59-5.74-1.15-8.89-1.76-3.17-.59-6.11-1.07-8.89-1.53-4.99-1.02-9.93-2.68-14.82-4.96-4.89-2.27-8.94-5.55-12.15-9.72-3.21-4.16-4.84-9.57-4.84-16.19,0-9.16,3.55-16.89,10.76-23.1,7.13-6.16,16.9-9.25,29.34-9.25s21.89,2.73,29.77,8.09c7.87,5.41,12.34,13.75,13.37,25.13h-19.47c-.61-6.16-3.12-10.59-7.55-13.29-4.43-2.68-9.93-3.99-16.31-3.99s-11.46,1.34-15.41,4.07c-4.01,2.73-6.01,6.3-6.01,10.78,0,7.77,5.92,12.81,17.75,15.09,1.76.14,3.58.37,5.58.78,1.95.32,4,.75,6.01,1.07,2,.37,3.87.7,5.45.97,3.5.59,7.13,1.39,10.95,2.49,3.82,1.07,7.37,2.68,10.76,4.77,3.36,2.09,6.11,4.9,8.25,8.42,2.14,3.51,3.21,8.01,3.21,13.51,0,6.62-1.76,12.54-5.26,17.68-3.5,5.18-8.49,9.22-14.9,12.17-6.43,2.97-14.12,4.45-22.96,4.45h-.05v.05ZM872.75,92.3c-4.14-7.64-10.06-13.75-17.7-18.46-7.74-4.72-16.85-6.99-27.53-6.99s-20.03,2.27-28.14,6.99c-8.25,4.72-14.58,11.29-19.09,19.62-4.51,8.47-6.75,18.38-6.75,29.61s2.24,21.09,6.89,29.43c4.51,8.38,10.89,14.82,19.09,19.53,8.06,4.72,17.38,6.99,27.85,6.99,8.47,0,16.07-1.44,22.69-4.5,6.67-3,12.15-7.18,16.53-12.54,4.43-5.33,7.5-11.29,9.4-17.72h-19.47c-2.32,5.74-5.91,10.37-10.9,13.56-4.99,3.33-11.13,4.99-18.45,4.99-5.92,0-11.56-1.44-16.82-4.26-5.26-2.92-9.5-7.18-12.71-12.91-2.75-5.09-4.43-11.29-4.62-18.36h85.89c.19-1.9.19-3.65.19-5.33v-4.63c0-9.06-2-17.45-6.25-25.03h-.14l.02.02ZM793.02,113.04c.56-5.46,2-10.08,4.43-14.07,3.17-5.18,7.31-9.16,12.63-11.9,5.18-2.63,10.89-3.97,17.04-3.97,9.13,0,16.63,2.63,22.69,7.91,6.01,5.33,9.32,12.73,9.77,22.03h-66.56ZM990.78,92.3c-4.14-7.64-10.06-13.75-17.79-18.46-7.64-4.72-16.72-6.99-27.39-6.99s-20.13,2.27-28.27,6.99c-8.15,4.72-14.49,11.29-19.09,19.62-4.43,8.47-6.75,18.38-6.75,29.61s2.32,21.09,6.89,29.43c4.65,8.38,11,14.82,19.09,19.53,8.15,4.72,17.46,6.99,27.95,6.99,8.47,0,15.97-1.44,22.69-4.5,6.67-3,12.15-7.18,16.53-12.54,4.33-5.33,7.5-11.29,9.4-17.72h-19.47c-2.32,5.74-6.01,10.37-11,13.56-4.89,3.33-11,4.99-18.35,4.99-6.01,0-11.64-1.44-16.82-4.26-5.26-2.92-9.5-7.18-12.71-12.91-2.83-5.09-4.43-11.29-4.65-18.36h85.89c.08-1.9.19-3.65.19-5.33v-4.63c0-9.06-2.14-17.45-6.25-25.03h-.08l-.02.02ZM911.08,113.04c.56-5.46,2-10.08,4.43-14.07,3.07-5.18,7.31-9.16,12.49-11.9,5.26-2.63,11-3.97,17.14-3.97,9.05,0,16.63,2.63,22.69,7.91,6.01,5.33,9.32,12.73,9.77,22.03h-66.52ZM1213.05,92.3c-4.24-7.64-10.06-13.75-17.78-18.46-7.64-4.72-16.85-6.99-27.44-6.99s-20.13,2.27-28.22,6.99c-8.15,4.72-14.49,11.29-19.09,19.62-4.51,8.47-6.75,18.38-6.75,29.61s2.32,21.09,6.89,29.43c4.7,8.38,11,14.82,19.09,19.53,8.15,4.72,17.38,6.99,27.95,6.99,8.47,0,15.97-1.44,22.64-4.5,6.57-3,12.15-7.18,16.53-12.54,4.33-5.33,7.5-11.29,9.42-17.72h-19.47c-2.32,5.74-6.01,10.37-11,13.56-4.99,3.33-11,4.99-18.35,4.99-6.01,0-11.64-1.44-16.95-4.26-5.18-2.92-9.4-7.18-12.71-12.91-2.75-5.09-4.33-11.29-4.51-18.36h85.89c.08-1.9.19-3.65.19-5.33v-4.63c0-9.06-2.09-17.45-6.25-25.03h-.05l-.02.02ZM1133.31,113.04c.56-5.46,2-10.08,4.33-14.07,3.17-5.18,7.4-9.16,12.63-11.9,5.26-2.63,11-3.97,17.14-3.97,9.05,0,16.53,2.63,22.64,7.91,6.01,5.33,9.32,12.73,9.77,22.03h-66.51ZM360.77,28.08v20.64l-21.01,3.14v-20.77l21.01-3ZM339.77,176.42v-106.98h21.01v107.03h-21.01v-.05ZM500.09,176.42V25.81l21.01-3.51v154.09h-21.01v.05-.02ZM1299.96,69.39v17.82h-41.59v89.16h-21.06v-96.99c0-5.55,4.51-10,10.15-10h52.51ZM1112.78,176.39h-26.46l-39.35-49.98-10.39,10v39.98h-21.06V21.18h21.06v92.03l44.21-43.73h25.63l-45.87,43.95,52.25,62.93-.02.03Z"/>
      <path class="cls-1" d="M34.62,209.84l8.65-46.28c.7-3.61,2.65-6.67,5.74-8.74l32.33-22.08c11.08-7.49,7.2-25.09-5.82-27.58l-38.52-7.21c-3.63-.7-6.65-2.63-8.76-5.69L2,54.4c-5.9-8.58,2.21-20.25,12.12-18.31l46.53,8.71c3.5.64,6.75,2.78,8.76,5.69l21.28,30.95c7.52,10.97,25.39,7.61,27.76-5.82l6.99-37.95c.64-3.61,2.61-6.67,5.69-8.74L170.04,2.02c8.46-5.73,20.5,1.55,18.53,11.9l-8.47,46.31c-.64,3.61-2.65,6.67-5.69,8.74l-57.48,39.52c-3.36,2.27-5.63,5.79-6.33,9.76l-12.76,68.2c-.7,3.61-2.65,6.67-5.74,8.74l-39.03,26.61c-8.31,5.63-20.47-1.39-18.46-11.96Z"/>
    </g>
  </g>
</svg>